
<svg version="1.0" xmlns="http://www.w3.org/2000/svg" width="88px" height="32px" viewBox="0 0 500.000000 500.000000" preserveAspectRatio="xMidYMid meet">

<g transform="translate(0.000000,500.000000) scale(0.100000,-0.100000)"
fill="#000000" stroke="none">
<path d="M891 2573 c-34 -37 -61 -73 -61 -80 0 -16 294 -476 307 -480 10 -4
302 444 310 476 2 9 -21 43 -57 84 l-62 67 -188 0 -188 0 -61 -67z m198 30 c0
-5 -19 -23 -40 -42 -44 -37 -55 -34 -65 17 l-6 32 56 0 c31 0 56 -3 55 -7z
m206 -25 c-4 -18 -11 -37 -16 -42 -8 -9 -86 50 -88 67 -1 4 24 7 55 7 l56 0
-7 -32z m-100 -23 l50 -45 -105 1 -105 0 50 44 c28 25 52 45 55 44 3 0 28 -20
55 -44z m-235 -1 c16 -40 13 -44 -36 -44 l-45 0 27 35 c32 42 41 43 54 9z
m413 -9 l28 -35 -47 0 c-43 0 -46 2 -40 23 3 12 6 28 6 35 0 23 25 12 53 -23z
m-347 -202 c23 -72 45 -144 48 -160 6 -25 6 -26 -7 -13 -11 12 -144 218 -191
298 -6 10 5 12 50 10 l58 -3 42 -132z m234 130 c0 -17 -115 -383 -121 -383 -6
0 -119 360 -119 379 0 7 37 11 120 11 66 0 120 -3 120 -7z
m144 -5 c-5 -7 -38 -60 -74 -118 -37 -58 -79 -125 -94 -148 -15 -24 -30 -42
-32 -39 -3 2 17 75 43 161 l48 156 58 0 c44 0 56 -3 51 -12z"/>
<path d="M1560 2315 l0 -195 25 0 c25 0 25 1 25 85 0 84 0 85 25 85 25 0 25
-1 25 -85 0 -84 0 -85 25 -85 l25 0 0 195 0 195 -25 0 -25 0 0 -112 c0
-61 -3 -109 -6 -106 -3 3 -18 52 -33 109 -26 97 -30 104 -54 107 l-27 3 0
-195z"/>
<path d="M1760 2315 l0 -195 65 0 65 0 0 30 c0 28 -2 30 -41 30 l-40 0 3 53
c3 48 5 52 31 55 23 3 27 8 27 33 0 26 -3 29 -30 29 -29 0 -30 1 -30 50 l0 50
40 0 c38 0 40 2 40 30 l0 30 -65 0 -65 0 0 -195z"/>
<path d="M1965 2498 c-4 -14 -55 -350 -55 -368 0 -5 11 -10 24 -10 20 0 25 6
31 40 6 35 10 40 35 40 24 0 28 -4 34 -40 5 -34 10 -40 31 -40 14 0 25 6 25
13 -1 6 -13 93 -28 192 l-28 180 -32 3 c-20 2 -34 -2 -37 -10z m49 -180 c6
-55 5 -58 -15 -58 -19 0 -21 4 -15 38 3 20 6 50 6 67 0 48 17 15 24 -47z"/>
<path d="M2111 2488 c0 -13 13 -99 27 -193 27 -169 27 -170 54 -173 31 -4 26
-20 58 193 11 72 22 145 25 163 5 29 4 32 -19 32 -29 0 -31 -4 -47 -132 -7
-54 -14 -96 -16 -95 -3 3 -32 200 -33 220 0 4 -11 7 -25 7 -19 0 -25 -5 -24
-22z"/>
<path d="M2310 2315 l0 -195 65 0 65 0 0 30 c0 28 -2 30 -40 30 l-40 0 0 55
c0 55 0 55 31 55 27 0 30 3 27 28 -2 21 -9 28 -30 30 -26 3 -28 6 -28 52 l0
49 38 3 c32 3 37 7 40 31 l3 27 -65 0 -66 0 0 -195z"/>
<path d="M2470 2316 l0 -196 25 0 c24 0 24 0 27 113 l3 112 17 -58 c10 -31 25
-82 33 -112 13 -48 19 -55 40 -55 l25 0 0 195 0 195 -25 0 -25 0 0 -112 c0
-61 -3 -109 -6 -106 -3 3 -18 52 -33 109 -26 97 -30 104 -54 107 l-27 3 0
-195z"/>
<path d="M2760 2315 l0 -195 43 0 c93 0 116 38 116 195 0 157 -23 195 -116
195 l-43 0 0 -195z m98 -3

 c-3 -111 -5 -127 -20 -130 -16 -3 -18 9 -18 138 0
138 0 141 20 130 19 -10 20 -19 18 -138z"/>
<path d="M2960 2315 l0 -195 65 0 65 0 0 30 c0 28 -3 30 -35 30 l-35 0 0 55
c0 52 1 55 25 55 21 0 25 5 25 30 0 25 -4 30 -25 30 -23 0 -25 3 -25 50 l0 50
35 0 c32 0 35 2 35 30 l0 30 -65 0 -65 0 0 -195z"/>
<path d="M3147 2492 c-40 -44 -30 -106 34 -198 39 -57 46 -119 14 -119 -14 0
-21 8 -23 28 -3 23 -8 27 -34 27 -23 0 -29 -4 -24 -16 3 -9 6 -24 6 -35 0 -31
36 -59 75 -59 51 0 75 28 75 88 0 41 -7 60 -45 118 -48 75 -62 139 -27 132 9
-2 18 -13 20 -26 3 -16 10 -22 28 -22 20 0 24 5 24 30 0 17 -9 39 -20 50 -25
25 -81 26 -103 2z"/>
<path d="M3310 2315 l0 -195 25 0 25 0 0 195 0 195 -25 0 -25 0 0 -112 c0
-61 -3 -109 -6 -106 -3 3 -18 52 -33 109 -26 97 -30 104 -54 107 l-27 3 0
-195z"/>
<path d="M3423 2483 c-15 -23 -18 -50 -18 -174 0 -130 2 -149 19 -168 21 -23
65 -28 84 -9 9 9 12 9 12 0 0 -7 7 -12 15 -12 12 0 15 17 15 95 l0 95 -35 0
c-28 0 -35 -4 -35 -20 0 -11 5 -20 11 -20 6 0 9 -19 7 -47 -2 -36 -7 -49 -21
-51 -16 -3 -17 7 -15 140 3 119 5 143 18 143 10 0 16 -13 18 -42 3 -38 6 -43
28 -43 22 0 24 4 24 50 0 62 -24 90 -75 90 -27 0 -39 -6 -52 -27z"/>
<path d="M3600 2315 l0 -195 25 0 c24 0 24 0 27 113 l3 112 30 -110 c26 -95
33 -110 53 -113 l22 -3 0 195 c0 189 -1 196 -20 196 -19 0 -20 -7 -20 -112 0
-62 -4 -108 -8 -103 -5 6 -16 37 -24 70 -9 33 -21 79 -28 103 -9 35 -15 42
-35 42 l-25 0 0 -195z m98 -3 c-5 -111 -7 -127 -22 -130 -15 -3 -17 9 -17
129 0 123 1 134 18 134 14 0 18 -8 21 -33z"/>
<path d="M3830 2490 c-39 -39 -25 -110 40 -205 39 -57 44 -115 11 -115 -13 0
-21 9 -26 30 -5 23 -12 30 -31 30 -20 0 -24 -5 -24 -29 0 -46 35 -81 79 -81
40 0 63 18 76 58 12 39 -3 83 -50 157 -29 45 -45 79 -43 95 4 33 35 39 40 8 2
-17 11 -24 32 -26 28 -3 29 -2 22 29 -3 18 -14 41 -23 51 -22 24 -78 23 -103
-2z"/>
</g>
</svg>
