<?xml version="1.0" standalone="no"?>
<!DOCTYPE svg PUBLIC "-//W3C//DTD SVG 20010904//EN"
 "http://www.w3.org/TR/2001/REC-SVG-20010904/DTD/svg10.dtd">
<svg version="1.0" xmlns="http://www.w3.org/2000/svg"
 width="500.000000pt" height="500.000000pt" viewBox="0 0 500.000000 500.000000"
 preserveAspectRatio="xMidYMid meet">

<g transform="translate(0.000000,500.000000) scale(0.100000,-0.100000)"
fill="#000000" stroke="none">
<path d="M106 4870 c-25 -27 -46 -52 -46 -56 0 -12 222 -354 230 -354 8 0 230
342 230 354 0 4 -21 29 -46 56 l-47 50 -137 0 -137 0 -47 -50z m144 21 c0 -10
-59 -56 -64 -50 -2 2 -6 16 -10 32 -6 26 -5 27 34 27 22 0 40 -4 40 -9z m160
5 c0 -3 -5 -17 -10 -31 l-10 -26 -30 21 c-41 29 -38 40 10 40 22 0 40 -2 40
-4z m-80 -41 l34 -35 -72 0 c-40 0 -72 2 -72 5 0 7 63 64 71 65 3 0 20 -16 39
-35z m-170 -17 c0 -13 -8 -18 -31 -18 -32 0 -32 7 -1 43 17 19 32 8 32 -25z
m296 -16 c-36 -4 -46 7 -34 38 l9 25 26 -30 27 -30 -28 -3z m-243 -139 c19
-65 35 -119 33 -120 -3 -4 -146 222 -146 231 0 3 17 6 38 6 l38 0 37 -117z
m164 105 c-2 -7 -22 -70 -43 -140 -22 -71 -41 -128 -44 -128 -3 0 -23 57 -44
126 -20 70 -40 133 -43 140 -4 11 13 14 87 14 69 0 91 -3 87 -12z m103 5 c0
-5 -34 -60 -76 -123 -42 -63 -73 -107 -70 -97 3 9 20 65 37 122 l32 105 39 0
c21 0 38 -3 38 -7z"/>
<path d="M560 4730 c0 -153 1 -160 20 -160 18 0 20 7 20 70 0 63 2 70 20 70
18 0 20 -7 20 -70 0 -68 1 -70 25 -70 l25 0 0 160 0 160 -25 0 c-24 0 -25 -2
-25 -65 0 -58 -2 -65 -20 -65 -18 0 -20 7 -20 65 0 58 -2 65 -20 65 -19 0 -20
-7 -20 -160z"/>
<path d="M720 4730 l0 -160 55 0 c52 0 55 1 55 25 0 21 -5 25 -30 25 -29 0
-30 2 -30 45 0 38 3 45 20 45 15 0 20 7 20 25 0 18 -5 25 -20 25 -17 0 -20 7
-20 40 0 38 2 40 30 40 25 0 30 4 30 25 0 24 -3 25 -55 25 l-55 0 0 -160z"/>
<path d="M876 4778 c-10 -62 -21 -134 -25 -160 -8 -46 -7 -48 15 -48 18 0 23
6 26 32 5 57 57 48 58 -9 0 -16 6 -23 20 -23 25 0 25 5 0 166 -11 71 -20 135
-20 142 0 7 -12 12 -29 12 l-29 0 -16 -112z m56 -48 c3 -31 0 -40 -12 -40 -12
0 -14 10 -12 45 5 54 18 51 24 -5z"/>
<path d="M1010 4878 c0 -7 10 -79 22 -160 20 -139 23 -148 44 -148 20 0 23 9
44 148 12 81 23 153 25 160 3 7 -5 12 -19 12 -22 0 -24 -6 -35 -92 -12 -89
-21 -125 -21 -80 0 12 -5 55 -11 97 -10 63 -14 75 -30 75 -11 0 -19 -6 -19
-12z"/>
<path d="M1170 4730 l0 -160 55 0 c52 0 55 1 55 25 0 21 -5 25 -30 25 -29 0
-30 2 -30 45 0 38 3 45 20 45 15 0 20 7 20 25 0 18 -5 25 -20 25 -17 0 -20 7
-20 40 0 38 2 40 30 40 25 0 30 4 30 25 0 24 -3 25 -55 25 l-55 0 0 -160z"/>
<path d="M1300 4731 c0 -154 1 -161 20 -161 19 0 20 7 20 92 0 50 3 89 6 86 3
-4 16 -44 28 -90 19 -69 27 -84 44 -86 22 -3 22 -2 22 157 0 154 -1 161 -20
161 -19 0 -20 -7 -20 -92 0 -50 -2 -89 -5 -86 -3 3 -16 43 -29 89 -19 70 -26
85 -44 87 -22 3 -22 2 -22 -157z"/>
<path d="M1540 4729 l0 -162 46 6 c74 8 79 19 79 158 0 115 -1 122 -24 140
-14 11 -39 19 -62 19 l-39 0 0 -161z m75 1 c0 -74 -4 -105 -12 -107 -10 -4
-13 22 -13 107 0 85 3 111 13 108 8 -3 12 -34 12 -108z"/>
<path d="M1700 4730 l0 -160 55 0 c52 0 55 1 55 25 0 21 -5 25 -30 25 -29 0
-30 2 -30 45 0 38 3 45 20 45 15 0 20 7 20 25 0 18 -5 25 -20 25 -17 0 -20 7
-20 40 0 38 2 40 30 40 25 0 30 4 30 25 0 24 -3 25 -55 25 l-55 0 0 -160z"/>
<path d="M1850 4875 c-25 -30 -15 -89 24 -153 37 -59 44 -101 19 -109 -7 -3
-15 7 -19 21 -8 34 -44 36 -44 3 0 -35 27 -67 59 -67 77 0 90 78 28 173 -39
60 -48 107 -22 107 8 0 15 -9 15 -20 0 -15 7 -20 26 -20 24 0 25 3 19 27 -4
16 -11 34 -17 40 -15 18 -73 16 -88 -2z"/>
<path d="M1990 4730 c0 -153 1 -160 20 -160 19 0 20 7 20 160 0 153 -1 160
-20 160 -19 0 -20 -7 -20 -160z"/>
<path d="M2073 4853 c-19 -47 -15 -241 5 -266 9 -11 29 -15 63 -15 l49 1 0 79
0 78 -35 0 c-28 0 -35 -4 -35 -20 0 -11 5 -20 10 -20 6 0 10 -18 10 -40 0 -29
-4 -40 -15 -40 -13 0 -15 17 -13 117 2 82 7 118 16 121 8 2 12 -8 12 -32 0
-32 3 -36 26 -36 25 0 26 2 21 40 -7 53 -22 70 -64 70 -30 0 -36 -5 -50 -37z"/>
<path d="M2220 4730 c0 -153 1 -160 20 -160 18 0 20 7 20 87 0 47 3 83 8 79 4
-4 16 -42 28 -84 17 -63 25 -78 42 -80 22 -3 22 -2 22 157 0 153 -1 161 -20
161 -18 0 -20 -8 -22 -92 l-3 -93 -25 93 c-22 82 -27 92 -47 92 -23 0 -23 0
-23 -160z"/>
<path d="M2404 4865 c-22 -34 -13 -77 31 -145 22 -34 35 -65 33 -80 -4 -31
-32 -33 -36 -2 -2 15 -10 22 -26 22 -20 0 -22 -4 -18 -27 7 -39 30 -63 61 -63
36 0 50 11 61 49 10 38 -1 75 -44 138 -26 38 -35 93 -15 93 6 0 13 -9 16 -20
3 -13 14 -20 28 -20 22 0 23 3 14 32 -10 37 -24 48 -61 48 -18 0 -33 -8 -44
-25z"/>
</g>
</svg>
